<svg width="153" height="34" viewBox="0 0 153 34" fill="none" xmlns="http://www.w3.org/2000/svg">
<path d="M148.229 25.8L147.829 23.36C147.162 24.1867 146.402 24.84 145.549 25.32C144.722 25.8 143.602 26.04 142.189 26.04C140.855 26.04 139.682 25.8133 138.669 25.36C137.682 24.88 136.909 24.2267 136.349 23.4C135.789 22.5467 135.509 21.5467 135.509 20.4C135.509 18.72 136.109 17.3333 137.309 16.24C138.535 15.12 140.375 14.4133 142.829 14.12L147.829 13.56V12.16C147.829 11.6 147.575 11.08 147.069 10.6C146.562 10.12 145.762 9.88 144.669 9.88C143.709 9.88 142.869 10.12 142.149 10.6C141.455 11.0533 140.989 11.7467 140.749 12.68L136.349 11.08C136.882 9.29334 137.895 7.92 139.389 6.96C140.882 6 142.722 5.52 144.909 5.52C147.575 5.52 149.575 6.18667 150.909 7.52C152.269 8.82667 152.949 10.56 152.949 12.72V25.8H148.229ZM147.829 17.12L143.509 17.68C142.629 17.7867 141.962 18.0533 141.509 18.48C141.055 18.88 140.829 19.3733 140.829 19.96C140.829 20.52 141.055 21 141.509 21.4C141.962 21.7733 142.602 21.96 143.429 21.96C144.362 21.96 145.149 21.7867 145.789 21.44C146.455 21.0933 146.962 20.5867 147.309 19.92C147.655 19.2533 147.829 18.4267 147.829 17.44V17.12Z" fill="white"/>
<path d="M121.273 5.79999H125.913L126.273 8.35999C126.833 7.66665 127.46 7.10665 128.153 6.67998C128.873 6.22665 129.66 5.91998 130.513 5.75998C131.367 5.57332 132.26 5.58665 133.193 5.79999V10.6C132.473 10.36 131.713 10.2933 130.913 10.4C130.14 10.5067 129.407 10.7867 128.713 11.24C128.047 11.6933 127.487 12.3467 127.033 13.2C126.607 14.0267 126.393 15.08 126.393 16.36V25.8H121.273V5.79999Z" fill="white"/>
<path d="M111.727 5.80001H116.367V22.84C116.367 25.1067 115.807 27.0533 114.687 28.68C113.567 30.3333 111.941 31.6 109.807 32.48C107.701 33.36 105.167 33.8 102.207 33.8L101.407 29.48C104.634 29.4267 107.074 28.8533 108.727 27.76C110.407 26.6667 111.247 25.0933 111.247 23.04V22.96L111.927 22.72C111.287 23.6533 110.407 24.4533 109.287 25.12C108.167 25.76 106.834 26.08 105.287 26.08C103.527 26.08 101.981 25.6533 100.647 24.8C99.3139 23.9467 98.2605 22.76 97.4872 21.24C96.7405 19.6933 96.3672 17.88 96.3672 15.8C96.3672 13.72 96.7405 11.9067 97.4872 10.36C98.2605 8.81334 99.3139 7.62667 100.647 6.8C101.981 5.94667 103.527 5.52 105.287 5.52C106.194 5.52 107.034 5.65334 107.807 5.92001C108.607 6.16 109.301 6.49334 109.887 6.92C110.501 7.32 111.007 7.77334 111.407 8.28L111.727 5.80001ZM101.887 15.8C101.887 17.48 102.314 18.84 103.167 19.88C104.021 20.8933 105.167 21.4 106.607 21.4C107.434 21.4 108.194 21.1867 108.887 20.76C109.581 20.3067 110.141 19.6533 110.567 18.8C111.021 17.9467 111.247 16.9467 111.247 15.8C111.247 14.6 111.021 13.5867 110.567 12.76C110.141 11.9333 109.567 11.3067 108.847 10.88C108.154 10.4267 107.407 10.2 106.607 10.2C105.167 10.2 104.021 10.72 103.167 11.76C102.314 12.7733 101.887 14.12 101.887 15.8Z" fill="white"/>
<path d="M60.7599 5.8V0.199997H65.9599V5.8H70.3599V10.32H65.9599V18.44C65.9599 19.48 66.1733 20.2133 66.5999 20.64C67.0533 21.0667 67.6133 21.2933 68.2799 21.32C68.9733 21.3467 69.6666 21.3067 70.3599 21.2V25.6C69.1333 25.8667 67.9333 25.9467 66.7599 25.84C65.6133 25.7333 64.5866 25.4267 63.6799 24.92C62.7732 24.3867 62.0533 23.5867 61.5199 22.52C61.0133 21.4533 60.7599 20.0933 60.7599 18.44V10.32H57.9199V5.8H60.7599Z" fill="white"/>
<path d="M44.125 5.79999H48.765L49.125 8.35999C49.685 7.66665 50.3117 7.10665 51.005 6.67998C51.725 6.22665 52.5117 5.91998 53.365 5.75998C54.2183 5.57332 55.1117 5.58665 56.045 5.79999V10.6C55.325 10.36 54.565 10.2933 53.765 10.4C52.9917 10.5067 52.2583 10.7867 51.565 11.24C50.8983 11.6933 50.3383 12.3467 49.885 13.2C49.4583 14.0267 49.245 15.08 49.245 16.36V25.8H44.125V5.79999Z" fill="white"/>
<path d="M34.7132 25.8L34.3132 23.36C33.6465 24.1867 32.8865 24.84 32.0332 25.32C31.2065 25.8 30.0865 26.04 28.6732 26.04C27.3398 26.04 26.1665 25.8133 25.1532 25.36C24.1665 24.88 23.3932 24.2267 22.8332 23.4C22.2732 22.5467 21.9932 21.5467 21.9932 20.4C21.9932 18.72 22.5932 17.3333 23.7932 16.24C25.0198 15.12 26.8598 14.4133 29.3132 14.12L34.3132 13.56V12.16C34.3132 11.6 34.0598 11.08 33.5532 10.6C33.0465 10.12 32.2465 9.88 31.1532 9.88C30.1932 9.88 29.3532 10.12 28.6332 10.6C27.9398 11.0533 27.4732 11.7467 27.2332 12.68L22.8332 11.08C23.3665 9.29334 24.3798 7.92 25.8732 6.96C27.3665 6 29.2065 5.52 31.3932 5.52C34.0598 5.52 36.0598 6.18667 37.3932 7.52C38.7532 8.82667 39.4332 10.56 39.4332 12.72V25.8H34.7132ZM34.3132 17.12L29.9932 17.68C29.1132 17.7867 28.4465 18.0533 27.9932 18.48C27.5398 18.88 27.3132 19.3733 27.3132 19.96C27.3132 20.52 27.5398 21 27.9932 21.4C28.4465 21.7733 29.0865 21.96 29.9132 21.96C30.8465 21.96 31.6332 21.7867 32.2732 21.44C32.9398 21.0933 33.4465 20.5867 33.7932 19.92C34.1398 19.2533 34.3132 18.4267 34.3132 17.44V17.12Z" fill="white"/>
<path d="M9.8 26.08C7.85333 26.08 6.14667 25.6533 4.68 24.8C3.21333 23.9467 2.06667 22.76 1.24 21.24C0.413333 19.6933 0 17.9067 0 15.88C0 13.8267 0.413333 12.0267 1.24 10.48C2.06667 8.93334 3.22667 7.72 4.72 6.84C6.21333 5.96 7.93333 5.52 9.88 5.52C11.9867 5.52 13.8533 6.04 15.48 7.08C17.1333 8.12 18.2933 9.52 18.96 11.28L14.2 12.64C13.88 11.8667 13.3467 11.2533 12.6 10.8C11.88 10.3467 11.0533 10.12 10.12 10.12C9.18667 10.12 8.36 10.36 7.64 10.84C6.94667 11.32 6.4 11.9867 6 12.84C5.62667 13.6933 5.44 14.6933 5.44 15.84C5.44 17.5733 5.86667 18.9467 6.72 19.96C7.57333 20.9733 8.72 21.48 10.16 21.48C11.0667 21.48 11.8933 21.2667 12.64 20.84C13.3867 20.3867 13.9467 19.7733 14.32 19L19.04 20.36C18.32 22.0933 17.12 23.48 15.44 24.52C13.7867 25.56 11.9067 26.08 9.8 26.08Z" fill="white"/>
<path d="M84.1602 5.79997C85.9744 5.79997 87.6476 6.24702 89.1797 7.14112C90.7118 8.03522 91.9249 9.24832 92.819 10.7804C93.7131 12.3126 94.1602 13.9857 94.1602 15.8C94.1602 17.6142 93.7131 19.2874 92.819 20.8195C91.9249 22.3516 90.7118 23.5647 89.1797 24.4588C87.6476 25.3529 85.9744 25.8 84.1602 25.8C82.3459 25.8 80.6727 25.3529 79.1406 24.4588C77.6085 23.5647 76.3954 22.3516 75.5013 20.8195C74.6072 19.2874 74.1602 17.6142 74.1602 15.8C74.1602 13.9857 74.6072 12.3126 75.5013 10.7804C76.3954 9.24832 77.6085 8.03522 79.1406 7.14112C80.6727 6.24702 82.3459 5.79997 84.1602 5.79997ZM87.7279 12.5838C87.7105 12.5925 87.6693 12.6337 87.6042 12.7075C87.5391 12.7813 87.4805 12.8225 87.4284 12.8312C87.4457 12.8312 87.4653 12.8095 87.487 12.7661C87.5087 12.7227 87.5304 12.675 87.5521 12.6229C87.5738 12.5708 87.589 12.5404 87.5977 12.5317C87.6497 12.471 87.7452 12.4059 87.8841 12.3364C88.0056 12.2843 88.2313 12.2323 88.5612 12.1802C88.8563 12.1107 89.0777 12.1585 89.2253 12.3234C89.2079 12.306 89.2491 12.2496 89.349 12.1541C89.4488 12.0587 89.5117 12.0066 89.5378 11.9979C89.5638 11.9805 89.6289 11.961 89.7331 11.9393C89.8372 11.9176 89.9023 11.885 89.9284 11.8416L89.9544 11.5552C89.8503 11.5639 89.7743 11.5335 89.7266 11.464C89.6788 11.3946 89.6506 11.3034 89.6419 11.1906C89.6419 11.208 89.6159 11.2427 89.5638 11.2948C89.5638 11.234 89.5443 11.1993 89.5052 11.1906C89.4661 11.1819 89.4162 11.1863 89.3555 11.2036C89.2947 11.221 89.2556 11.2253 89.2383 11.2166C89.1515 11.1906 89.0864 11.158 89.043 11.119C88.9996 11.0799 88.9648 11.0083 88.9388 10.9041C88.9128 10.8 88.8954 10.7349 88.8867 10.7088C88.8694 10.6654 88.8281 10.6177 88.763 10.5656C88.6979 10.5135 88.6567 10.4701 88.6393 10.4354C88.6306 10.418 88.6198 10.3942 88.6068 10.3638C88.5938 10.3334 88.5807 10.3052 88.5677 10.2791C88.5547 10.2531 88.5373 10.2292 88.5156 10.2075C88.4939 10.1858 88.4701 10.175 88.444 10.175C88.418 10.175 88.3876 10.1967 88.3529 10.2401C88.3181 10.2835 88.2856 10.3269 88.2552 10.3703C88.2248 10.4137 88.2053 10.4354 88.1966 10.4354C88.1706 10.418 88.1445 10.4115 88.1185 10.4159C88.0924 10.4202 88.0729 10.4245 88.0599 10.4289C88.0469 10.4332 88.0273 10.4462 88.0013 10.4679C87.9753 10.4896 87.9536 10.5048 87.9362 10.5135C87.9102 10.5309 87.8733 10.5439 87.8255 10.5526C87.7778 10.5613 87.7409 10.5699 87.7148 10.5786C87.8451 10.5352 87.8407 10.4875 87.7018 10.4354C87.615 10.4007 87.5456 10.3876 87.4935 10.3963C87.5716 10.3616 87.6042 10.3095 87.5911 10.2401C87.5781 10.1706 87.5412 10.1099 87.4805 10.0578H87.5456C87.5369 10.0231 87.5 9.98617 87.4349 9.94711C87.3698 9.90805 87.2938 9.87115 87.207 9.83643C87.1202 9.80171 87.0638 9.77567 87.0378 9.75831C86.9683 9.7149 86.8207 9.67367 86.5951 9.63461C86.3694 9.59555 86.2261 9.59338 86.1654 9.6281C86.122 9.68018 86.1024 9.72575 86.1068 9.76482C86.1111 9.80388 86.1285 9.86464 86.1589 9.94711C86.1892 10.0296 86.2044 10.0838 86.2044 10.1099C86.2131 10.162 86.1892 10.2184 86.1328 10.2791C86.0764 10.3399 86.0482 10.392 86.0482 10.4354C86.0482 10.4962 86.1089 10.5634 86.2305 10.6372C86.352 10.711 86.3954 10.8043 86.3607 10.9172C86.3346 10.9866 86.2652 11.056 86.1523 11.1255C86.0395 11.1949 85.9701 11.247 85.944 11.2817C85.9006 11.3512 85.8941 11.4315 85.9245 11.5226C85.9549 11.6138 86.0004 11.6854 86.0612 11.7375C86.0786 11.7548 86.0851 11.7722 86.0807 11.7896C86.0764 11.8069 86.0612 11.8264 86.0352 11.8481C86.0091 11.8699 85.9852 11.8872 85.9635 11.9002C85.9418 11.9133 85.9136 11.9284 85.8789 11.9458L85.8398 11.9718C85.7444 12.0153 85.6554 11.9892 85.5729 11.8937C85.4905 11.7982 85.4319 11.6854 85.3971 11.5552C85.3364 11.3382 85.2669 11.208 85.1888 11.1646C84.9891 11.0951 84.8633 11.0995 84.8112 11.1776C84.7678 11.0647 84.5898 10.9519 84.2773 10.839C84.0603 10.7609 83.8086 10.7435 83.5221 10.787C83.5742 10.7783 83.5742 10.7132 83.5221 10.5916C83.4614 10.4614 83.3789 10.4093 83.2747 10.4354C83.3008 10.3833 83.3181 10.3074 83.3268 10.2075C83.3355 10.1077 83.3398 10.0491 83.3398 10.0317C83.3659 9.9189 83.418 9.81907 83.4961 9.73226C83.5048 9.72358 83.5352 9.68669 83.5872 9.62159C83.6393 9.55648 83.6806 9.49789 83.7109 9.44581C83.7413 9.39372 83.7435 9.36768 83.7174 9.36768C84.0213 9.4024 84.2383 9.35466 84.3685 9.22445C84.4119 9.18105 84.4618 9.10726 84.5182 9.0031C84.5747 8.89893 84.6202 8.82515 84.6549 8.78174C84.7331 8.72966 84.7938 8.70579 84.8372 8.71013C84.8806 8.71447 84.9436 8.73834 85.026 8.78174C85.1085 8.82515 85.1714 8.84685 85.2148 8.84685C85.3364 8.85553 85.4036 8.80779 85.4167 8.70362C85.4297 8.59945 85.3971 8.51265 85.319 8.4432C85.4232 8.45188 85.4362 8.3781 85.3581 8.22185C85.3233 8.16108 85.2886 8.12202 85.2539 8.10466C85.1497 8.06994 85.0326 8.09164 84.9023 8.16976C84.8329 8.20449 84.8416 8.23921 84.9284 8.27393C84.9197 8.26525 84.8785 8.31082 84.8047 8.41065C84.7309 8.51048 84.6593 8.58643 84.5898 8.63851C84.5204 8.6906 84.451 8.6689 84.3815 8.57341C84.3728 8.56473 84.349 8.50614 84.3099 8.39763C84.2708 8.28912 84.2296 8.23053 84.1862 8.22185C84.1168 8.22185 84.0473 8.28695 83.9779 8.41716C84.0039 8.34772 83.9562 8.28261 83.8346 8.22185C83.7131 8.16108 83.6089 8.12636 83.5221 8.11768C83.6871 8.01351 83.6523 7.89633 83.418 7.76612C83.3572 7.7314 83.2682 7.70969 83.151 7.70101C83.0339 7.69233 82.9492 7.70969 82.8971 7.7531C82.8537 7.81386 82.8299 7.86377 82.8255 7.90284C82.8212 7.9419 82.8429 7.97662 82.8906 8.007C82.9384 8.03739 82.9839 8.06126 83.0273 8.07862C83.0707 8.09598 83.1207 8.11334 83.1771 8.1307C83.2335 8.14806 83.2704 8.16108 83.2878 8.16976C83.4093 8.25657 83.444 8.31733 83.3919 8.35206C83.3746 8.36074 83.3377 8.37593 83.2812 8.39763C83.2248 8.41933 83.1749 8.43886 83.1315 8.45622C83.0881 8.47358 83.0621 8.49094 83.0534 8.50831C83.0273 8.54303 83.0273 8.60379 83.0534 8.6906C83.0794 8.7774 83.0707 8.83817 83.0273 8.87289C82.9839 8.82949 82.9449 8.75353 82.9102 8.64502C82.8754 8.53652 82.8451 8.4649 82.819 8.43018C82.8798 8.50831 82.7713 8.53435 82.4935 8.50831L82.3633 8.49529C82.3286 8.49529 82.2591 8.50397 82.1549 8.52133C82.0508 8.53869 81.9618 8.54303 81.888 8.53435C81.8142 8.52567 81.7556 8.49094 81.7122 8.43018C81.6775 8.36074 81.6775 8.27393 81.7122 8.16976C81.7209 8.13504 81.7383 8.12636 81.7643 8.14372C81.7296 8.11768 81.6819 8.07645 81.6211 8.02002C81.5603 7.9636 81.5169 7.92671 81.4909 7.90935C81.0916 8.03956 80.6836 8.21751 80.2669 8.4432C80.319 8.45188 80.3711 8.44754 80.4232 8.43018C80.4666 8.41282 80.523 8.38461 80.5924 8.34555C80.6619 8.30648 80.7053 8.28261 80.7227 8.27393C81.0178 8.1524 81.2001 8.12202 81.2695 8.18279L81.3346 8.11768C81.4562 8.25657 81.543 8.36508 81.5951 8.4432C81.5343 8.40848 81.4041 8.40414 81.2044 8.43018C81.0308 8.48226 80.9353 8.53435 80.918 8.58643C80.9787 8.6906 81.0004 8.76872 80.9831 8.82081C80.9484 8.79476 80.8984 8.75136 80.8333 8.6906C80.7682 8.62983 80.7053 8.58209 80.6445 8.54737C80.5838 8.51265 80.5187 8.49094 80.4492 8.48226C80.3103 8.48226 80.2148 8.4866 80.1628 8.49529C78.8954 9.18973 77.8754 10.1533 77.1029 11.3859C77.1636 11.4467 77.2157 11.4814 77.2591 11.4901C77.2938 11.4988 77.3155 11.5378 77.3242 11.6073C77.3329 11.6767 77.3438 11.7245 77.3568 11.7505C77.3698 11.7765 77.4197 11.7635 77.5065 11.7114C77.5846 11.7809 77.5977 11.8633 77.5456 11.9588C77.5543 11.9501 77.7452 12.0673 78.1185 12.3104C78.2834 12.458 78.3746 12.5491 78.3919 12.5838C78.418 12.6793 78.3746 12.7574 78.2617 12.8182C78.253 12.8008 78.214 12.7618 78.1445 12.701C78.0751 12.6403 78.036 12.6229 78.0273 12.6489C78.0013 12.6923 78.0035 12.7726 78.0339 12.8898C78.0642 13.007 78.1098 13.0613 78.1706 13.0526C78.1098 13.0526 78.0686 13.122 78.0469 13.2609C78.0252 13.3998 78.0143 13.5539 78.0143 13.7231C78.0143 13.8924 78.01 13.9944 78.0013 14.0291L78.0273 14.0422C78.0013 14.1463 78.0252 14.2961 78.099 14.4914C78.1727 14.6867 78.2661 14.7713 78.3789 14.7453C78.2661 14.7713 78.3529 14.958 78.6393 15.3052C78.6914 15.3746 78.7261 15.4137 78.7435 15.4224C78.7695 15.4397 78.8216 15.4723 78.8997 15.52C78.9779 15.5678 79.043 15.6112 79.0951 15.6502C79.1471 15.6893 79.1905 15.7349 79.2253 15.787C79.26 15.8304 79.3034 15.928 79.3555 16.0799C79.4076 16.2318 79.4683 16.3338 79.5378 16.3859C79.5204 16.438 79.5616 16.5248 79.6615 16.6463C79.7613 16.7679 79.8069 16.8677 79.7982 16.9458C79.7895 16.9458 79.7786 16.9501 79.7656 16.9588C79.7526 16.9675 79.7418 16.9718 79.7331 16.9718C79.7591 17.0326 79.8264 17.0934 79.9349 17.1541C80.0434 17.2149 80.1107 17.2713 80.1367 17.3234C80.1454 17.3495 80.1541 17.3929 80.1628 17.4536C80.1714 17.5144 80.1845 17.5621 80.2018 17.5968C80.2192 17.6316 80.2539 17.6403 80.306 17.6229C80.3234 17.4493 80.2192 17.1802 79.9935 16.8156C79.8633 16.5986 79.7895 16.4727 79.7721 16.438C79.7461 16.3946 79.7222 16.3273 79.7005 16.2362C79.6788 16.145 79.6593 16.0821 79.6419 16.0474C79.6593 16.0474 79.6853 16.0539 79.7201 16.0669C79.7548 16.0799 79.7917 16.0951 79.8307 16.1125C79.8698 16.1298 79.9023 16.1472 79.9284 16.1646C79.9544 16.1819 79.9631 16.1949 79.9544 16.2036C79.9284 16.2644 79.9371 16.3403 79.9805 16.4315C80.0239 16.5226 80.076 16.6029 80.1367 16.6724C80.1975 16.7418 80.2713 16.8243 80.3581 16.9198C80.4449 17.0153 80.497 17.0717 80.5143 17.089C80.5664 17.1411 80.6272 17.2258 80.6966 17.3429C80.7661 17.4601 80.7661 17.5187 80.6966 17.5187C80.7747 17.5187 80.8615 17.5643 80.957 17.6554C81.0525 17.7466 81.1263 17.8312 81.1784 17.9093C81.2218 17.9788 81.2565 18.0916 81.2826 18.2479C81.3086 18.4041 81.3303 18.5083 81.3477 18.5604C81.365 18.6212 81.4019 18.6797 81.4583 18.7362C81.5148 18.7926 81.569 18.8338 81.6211 18.8599L81.8294 18.964L81.9987 19.0552C82.0421 19.0725 82.1224 19.1181 82.2396 19.1919C82.3568 19.2657 82.4501 19.3156 82.5195 19.3416C82.6063 19.3764 82.6758 19.3937 82.7279 19.3937C82.7799 19.3937 82.8429 19.3829 82.9167 19.3612C82.9905 19.3395 83.049 19.3243 83.0924 19.3156C83.2227 19.2982 83.3485 19.3633 83.4701 19.5109C83.5916 19.6585 83.6827 19.7496 83.7435 19.7843C84.056 19.9493 84.2947 19.997 84.4596 19.9276C84.4423 19.9363 84.4444 19.9688 84.4661 20.0252C84.4878 20.0817 84.5226 20.1489 84.5703 20.2271C84.6181 20.3052 84.6571 20.3681 84.6875 20.4159C84.7179 20.4636 84.7418 20.5005 84.7591 20.5265C84.8025 20.5786 84.8806 20.6437 84.9935 20.7218C85.1063 20.8 85.1845 20.8651 85.2279 20.9172C85.2799 20.8824 85.3103 20.8434 85.319 20.8C85.293 20.8694 85.3234 20.9562 85.4102 21.0604C85.497 21.1646 85.5751 21.208 85.6445 21.1906C85.7661 21.1646 85.8268 21.0257 85.8268 20.7739C85.5577 20.9041 85.3451 20.826 85.1888 20.5396C85.1888 20.5309 85.178 20.507 85.1562 20.4679C85.1345 20.4289 85.1172 20.392 85.1042 20.3573C85.0911 20.3225 85.0803 20.2856 85.0716 20.2466C85.0629 20.2075 85.0629 20.175 85.0716 20.1489C85.0803 20.1229 85.102 20.1099 85.1367 20.1099C85.2148 20.1099 85.2582 20.0947 85.2669 20.0643C85.2756 20.0339 85.2669 19.9797 85.2409 19.9015C85.2148 19.8234 85.1975 19.767 85.1888 19.7323C85.1801 19.6628 85.1324 19.576 85.0456 19.4718C84.9588 19.3677 84.9067 19.3026 84.8893 19.2765C84.8459 19.3547 84.7765 19.3894 84.681 19.3807C84.5855 19.372 84.5161 19.333 84.4727 19.2635C84.4727 19.2722 84.4661 19.2961 84.4531 19.3351C84.4401 19.3742 84.4336 19.4024 84.4336 19.4198C84.3207 19.4198 84.2556 19.4154 84.2383 19.4067C84.247 19.3807 84.2578 19.3047 84.2708 19.1789C84.2839 19.053 84.299 18.9554 84.3164 18.8859C84.3251 18.8512 84.349 18.7991 84.388 18.7297C84.4271 18.6602 84.4596 18.5973 84.4857 18.5409C84.5117 18.4844 84.5291 18.4302 84.5378 18.3781C84.5464 18.326 84.5269 18.2848 84.4792 18.2544C84.4314 18.224 84.3555 18.2132 84.2513 18.2218C84.0864 18.2305 83.9735 18.3173 83.9128 18.4823C83.9041 18.5083 83.8911 18.5539 83.8737 18.619C83.8563 18.6841 83.8346 18.734 83.8086 18.7687C83.7826 18.8034 83.7435 18.8338 83.6914 18.8599C83.6306 18.8859 83.5265 18.8946 83.3789 18.8859C83.2313 18.8772 83.1272 18.8555 83.0664 18.8208C82.9536 18.7514 82.8559 18.6255 82.7734 18.4432C82.691 18.2609 82.6497 18.1003 82.6497 17.9614C82.6497 17.8746 82.6606 17.7596 82.6823 17.6164C82.704 17.4731 82.717 17.3646 82.7214 17.2909C82.7257 17.2171 82.7018 17.1107 82.6497 16.9718C82.6758 16.9545 82.7148 16.9133 82.7669 16.8481C82.819 16.783 82.8624 16.7375 82.8971 16.7114C82.9145 16.7028 82.934 16.6962 82.9557 16.6919C82.9774 16.6876 82.997 16.6876 83.0143 16.6919C83.0317 16.6962 83.049 16.6897 83.0664 16.6724C83.0838 16.655 83.0968 16.629 83.1055 16.5942C83.0968 16.5856 83.0794 16.5725 83.0534 16.5552C83.0273 16.5291 83.01 16.5161 83.0013 16.5161C83.0621 16.5422 83.1858 16.5356 83.3724 16.4966C83.559 16.4575 83.6784 16.464 83.7305 16.5161C83.8607 16.6116 83.9562 16.6029 84.0169 16.4901C84.0169 16.4814 84.0061 16.4402 83.9844 16.3664C83.9627 16.2926 83.9605 16.234 83.9779 16.1906C84.0213 16.425 84.1471 16.464 84.3555 16.3078C84.3815 16.3338 84.4488 16.3555 84.5573 16.3729C84.6658 16.3903 84.7418 16.412 84.7852 16.438C84.8112 16.4554 84.8416 16.4792 84.8763 16.5096C84.911 16.54 84.9349 16.5595 84.9479 16.5682C84.9609 16.5769 84.9826 16.5747 85.013 16.5617C85.0434 16.5487 85.0803 16.5205 85.1237 16.4771C85.2105 16.5986 85.2626 16.7028 85.2799 16.7896C85.3754 17.1368 85.4579 17.3278 85.5273 17.3625C85.5881 17.3885 85.6358 17.3972 85.6706 17.3885C85.7053 17.3798 85.7248 17.3386 85.7292 17.2648C85.7335 17.191 85.7335 17.1303 85.7292 17.0825C85.7248 17.0348 85.7183 16.9805 85.7096 16.9198L85.6966 16.8156V16.5812L85.6836 16.4771C85.5534 16.451 85.4731 16.3989 85.4427 16.3208C85.4123 16.2427 85.4188 16.1624 85.4622 16.0799C85.5056 15.9975 85.5707 15.9172 85.6576 15.839C85.6662 15.8304 85.701 15.8152 85.7617 15.7935C85.8225 15.7718 85.8898 15.7435 85.9635 15.7088C86.0373 15.6741 86.0916 15.6394 86.1263 15.6047C86.3086 15.4397 86.3737 15.2878 86.3216 15.1489C86.3824 15.1489 86.4301 15.1099 86.4648 15.0317C86.4562 15.0317 86.4345 15.0187 86.3997 14.9927C86.365 14.9666 86.3325 14.9449 86.3021 14.9276C86.2717 14.9102 86.2522 14.9015 86.2435 14.9015C86.3216 14.8581 86.3303 14.7887 86.2695 14.6932C86.3129 14.6672 86.3455 14.6194 86.3672 14.55C86.3889 14.4805 86.4214 14.4371 86.4648 14.4198C86.543 14.5239 86.6341 14.5326 86.7383 14.4458C86.8077 14.3764 86.8121 14.3069 86.7513 14.2375C86.7947 14.1767 86.8837 14.1311 87.0182 14.1008C87.1528 14.0704 87.2331 14.0291 87.2591 13.9771C87.3199 13.9944 87.3546 13.9857 87.3633 13.951C87.372 13.9163 87.3763 13.8642 87.3763 13.7948C87.3763 13.7253 87.3893 13.6732 87.4154 13.6385C87.4501 13.5951 87.5152 13.556 87.6107 13.5213C87.7062 13.4866 87.7626 13.4649 87.7799 13.4562L88.0013 13.313C88.0273 13.2783 88.0273 13.2609 88.0013 13.2609C88.1576 13.2783 88.2921 13.2305 88.4049 13.1177C88.4918 13.0222 88.4657 12.9354 88.3268 12.8573C88.3529 12.8052 88.3398 12.7639 88.2878 12.7336C88.2357 12.7032 88.1706 12.6793 88.0924 12.662C88.1185 12.6533 88.1684 12.6511 88.2422 12.6554C88.316 12.6598 88.3615 12.6533 88.3789 12.6359C88.5091 12.5491 88.4787 12.4797 88.2878 12.4276C88.1402 12.3842 87.9536 12.4363 87.7279 12.5838ZM85.6055 24.0031C87.3937 23.6906 88.9171 22.8703 90.1758 21.5422C90.1497 21.5161 90.0955 21.4966 90.013 21.4836C89.9306 21.4705 89.8763 21.4554 89.8503 21.438C89.694 21.3772 89.5898 21.3425 89.5378 21.3338C89.5464 21.2731 89.5356 21.2166 89.5052 21.1646C89.4748 21.1125 89.4401 21.0734 89.401 21.0474C89.362 21.0213 89.3077 20.9866 89.2383 20.9432C89.1688 20.8998 89.1211 20.8694 89.0951 20.8521C89.0777 20.8347 89.0473 20.8087 89.0039 20.7739C88.9605 20.7392 88.9301 20.7153 88.9128 20.7023C88.8954 20.6893 88.8628 20.6698 88.8151 20.6437C88.7674 20.6177 88.7305 20.609 88.7044 20.6177C88.6784 20.6264 88.635 20.6307 88.5742 20.6307L88.5352 20.6437C88.5091 20.6524 88.4852 20.6633 88.4635 20.6763C88.4418 20.6893 88.418 20.7023 88.3919 20.7153C88.3659 20.7284 88.3485 20.7414 88.3398 20.7544C88.3312 20.7674 88.3312 20.7783 88.3398 20.787C88.1576 20.6394 88.0013 20.5439 87.8711 20.5005C87.8277 20.4918 87.7799 20.4679 87.7279 20.4289C87.6758 20.3898 87.6302 20.3594 87.5911 20.3377C87.5521 20.316 87.5087 20.3095 87.4609 20.3182C87.4132 20.3269 87.3633 20.3573 87.3112 20.4093C87.2678 20.4528 87.2418 20.5179 87.2331 20.6047C87.2244 20.6915 87.2157 20.7479 87.207 20.7739C87.1463 20.7305 87.1463 20.6546 87.207 20.5461C87.2678 20.4376 87.2765 20.3573 87.2331 20.3052C87.207 20.2531 87.1615 20.2336 87.0964 20.2466C87.0312 20.2596 86.9792 20.2791 86.9401 20.3052C86.901 20.3312 86.8511 20.3681 86.7904 20.4159C86.7296 20.4636 86.6905 20.4918 86.6732 20.5005C86.6558 20.5092 86.6189 20.533 86.5625 20.5721C86.5061 20.6112 86.4692 20.6437 86.4518 20.6698C86.4258 20.7045 86.3997 20.7566 86.3737 20.826C86.3477 20.8955 86.326 20.9432 86.3086 20.9692C86.2912 20.9345 86.2413 20.9063 86.1589 20.8846C86.0764 20.8629 86.0352 20.839 86.0352 20.813C86.0525 20.8998 86.0699 21.0517 86.0872 21.2687C86.1046 21.4857 86.1263 21.6507 86.1523 21.7635C86.2131 22.0326 86.161 22.2409 85.9961 22.3885C85.7617 22.6055 85.6358 22.7791 85.6185 22.9093C85.5838 23.1003 85.6358 23.2132 85.7747 23.2479C85.7747 23.3087 85.74 23.3976 85.6706 23.5148C85.6011 23.632 85.5707 23.7253 85.5794 23.7948C85.5794 23.8468 85.5881 23.9163 85.6055 24.0031Z" fill="white"/>
</svg>
