<svg xmlns="http://www.w3.org/2000/svg" width="89" height="90" fill="none">
  <path fill="#fff" fill-rule="evenodd" d="M60.106 49.795a1.78 1.78 0 0 1-.228 2.506l-14.24 11.866a1.78 1.78 0 0 1-2.278-2.734L57.6 49.568a1.78 1.78 0 0 1 2.506.227" clip-rule="evenodd"/>
  <path fill="#fff" fill-rule="evenodd" d="M28.893 49.795a1.78 1.78 0 0 1 2.506-.227l14.24 11.865a1.78 1.78 0 0 1-2.278 2.734L29.12 52.301a1.78 1.78 0 0 1-.228-2.506" clip-rule="evenodd"/>
  <path fill="#fff" fill-rule="evenodd" d="M44.5 62.8a1.78 1.78 0 0 1-1.78-1.78V27.2a1.78 1.78 0 1 1 3.56 0v33.82a1.78 1.78 0 0 1-1.78 1.78" clip-rule="evenodd"/>
  <path fill="#fff" fill-rule="evenodd" d="M44.5 85.94c22.61 0 40.94-18.33 40.94-40.94S67.11 4.06 44.5 4.06 3.56 22.39 3.56 45 21.89 85.94 44.5 85.94m0 3.56C69.078 89.5 89 69.578 89 45S69.078.5 44.5.5 0 20.422 0 45s19.922 44.5 44.5 44.5" clip-rule="evenodd"/>
</svg>
