<svg width="21" height="20" viewBox="0 0 21 20" fill="none" xmlns="http://www.w3.org/2000/svg">
<path d="M11.5286 -0.000244141C12.6536 0.00275586 13.2246 0.00875586 13.7176 0.0227559L13.9116 0.0297558C14.1356 0.0377558 14.3566 0.0477558 14.6236 0.0597558C15.6876 0.109756 16.4136 0.277756 17.0506 0.524756C17.7106 0.778756 18.2666 1.12276 18.8226 1.67776C19.3313 2.17749 19.7248 2.78223 19.9756 3.44976C20.2226 4.08676 20.3906 4.81276 20.4406 5.87776C20.4526 6.14376 20.4626 6.36476 20.4706 6.58976L20.4766 6.78376C20.4916 7.27576 20.4976 7.84676 20.4996 8.97176L20.5006 9.71776V11.0278C20.503 11.7572 20.4953 12.4866 20.4776 13.2158L20.4716 13.4098C20.4636 13.6348 20.4536 13.8558 20.4416 14.1218C20.3916 15.1868 20.2216 15.9118 19.9756 16.5498C19.7248 17.2173 19.3313 17.822 18.8226 18.3218C18.3228 18.8305 17.7181 19.2239 17.0506 19.4748C16.4136 19.7218 15.6876 19.8898 14.6236 19.9398L13.9116 19.9698L13.7176 19.9758C13.2246 19.9898 12.6536 19.9968 11.5286 19.9988L10.7826 19.9998H9.47357C8.74383 20.0023 8.01409 19.9947 7.28457 19.9768L7.09057 19.9708C6.85318 19.9618 6.61584 19.9514 6.37857 19.9398C5.31457 19.8898 4.58857 19.7218 3.95057 19.4748C3.2834 19.2238 2.67901 18.8303 2.17957 18.3218C1.67051 17.8221 1.27668 17.2174 1.02557 16.5498C0.778569 15.9128 0.610569 15.1868 0.560569 14.1218L0.530569 13.4098L0.525569 13.2158C0.507135 12.4866 0.498801 11.7572 0.500569 11.0278V8.97176C0.497801 8.24236 0.505135 7.51295 0.522569 6.78376L0.529569 6.58976C0.537569 6.36476 0.547569 6.14376 0.559569 5.87776C0.609569 4.81276 0.777569 4.08776 1.02457 3.44976C1.27626 2.78195 1.67079 2.17719 2.18057 1.67776C2.67972 1.1693 3.28376 0.775829 3.95057 0.524756C4.58857 0.277756 5.31357 0.109756 6.37857 0.0597558C6.64457 0.0477558 6.86657 0.0377558 7.09057 0.0297558L7.28457 0.0237558C8.01376 0.00598857 8.74316 -0.00167884 9.47257 0.000755787L11.5286 -0.000244141ZM10.5006 4.99976C9.17449 4.99976 7.90272 5.52654 6.96503 6.46422C6.02735 7.4019 5.50057 8.67367 5.50057 9.99976C5.50057 11.3258 6.02735 12.5976 6.96503 13.5353C7.90272 14.473 9.17449 14.9998 10.5006 14.9998C11.8267 14.9998 13.0984 14.473 14.0361 13.5353C14.9738 12.5976 15.5006 11.3258 15.5006 9.99976C15.5006 8.67367 14.9738 7.4019 14.0361 6.46422C13.0984 5.52654 11.8267 4.99976 10.5006 4.99976ZM10.5006 6.99976C10.8945 6.99969 11.2847 7.07722 11.6487 7.22793C12.0127 7.37863 12.3434 7.59955 12.622 7.87808C12.9007 8.15661 13.1217 8.48729 13.2725 8.85124C13.4233 9.2152 13.501 9.60529 13.5011 9.99926C13.5011 10.3932 13.4236 10.7833 13.2729 11.1473C13.1222 11.5113 12.9013 11.8421 12.6227 12.1207C12.3442 12.3993 12.0135 12.6204 11.6496 12.7712C11.2856 12.922 10.8955 12.9997 10.5016 12.9998C9.70592 12.9998 8.94286 12.6837 8.38025 12.1211C7.81764 11.5585 7.50157 10.7954 7.50157 9.99976C7.50157 9.20411 7.81764 8.44104 8.38025 7.87844C8.94286 7.31583 9.70592 6.99976 10.5016 6.99976M15.7516 3.49976C15.42 3.49976 15.1021 3.63145 14.8677 3.86587C14.6333 4.10029 14.5016 4.41824 14.5016 4.74976C14.5016 5.08128 14.6333 5.39922 14.8677 5.63364C15.1021 5.86806 15.42 5.99976 15.7516 5.99976C16.0831 5.99976 16.401 5.86806 16.6355 5.63364C16.8699 5.39922 17.0016 5.08128 17.0016 4.74976C17.0016 4.41824 16.8699 4.10029 16.6355 3.86587C16.401 3.63145 16.0831 3.49976 15.7516 3.49976Z" fill="white"/>
</svg>
