<svg width="20" height="25" viewBox="0 0 20 25" fill="none" xmlns="http://www.w3.org/2000/svg">
<path d="M9.97566 24.9125C11.6856 23.454 13.2705 21.855 14.7139 20.1323C16.88 17.5452 19.4521 13.6924 19.4521 10.0209C19.4531 8.14587 18.8978 6.31269 17.8565 4.75337C16.8151 3.19406 15.3347 1.9787 13.6024 1.26111C11.8701 0.543527 9.96382 0.355965 8.12488 0.722165C6.28594 1.08837 4.59697 1.99187 3.27172 3.31833C2.38939 4.19674 1.69003 5.24143 1.21412 6.39192C0.738214 7.54242 0.495209 8.77588 0.499172 10.0209C0.499172 13.6924 3.07136 17.5452 5.23742 20.1323C6.68081 21.855 8.26575 23.454 9.97566 24.9125ZM9.97566 5.95956C11.0528 5.95956 12.0858 6.38745 12.8475 7.1491C13.6091 7.91075 14.037 8.94377 14.037 10.0209C14.037 11.098 13.6091 12.1311 12.8475 12.8927C12.0858 13.6544 11.0528 14.0823 9.97566 14.0823C8.89852 14.0823 7.8655 13.6544 7.10385 12.8927C6.3422 12.1311 5.91431 11.098 5.91431 10.0209C5.91431 8.94377 6.3422 7.91075 7.10385 7.1491C7.8655 6.38745 8.89852 5.95956 9.97566 5.95956Z" fill="white"/>
</svg>
