<svg width="17" height="25" viewBox="0 0 17 25" fill="none" xmlns="http://www.w3.org/2000/svg">
<path d="M3.31663 1.48851L4.57196 1.08717C5.74913 0.711507 7.0068 1.31934 7.5108 2.50701L8.51413 4.87301C8.95047 5.90317 8.7078 7.11534 7.91447 7.86901L5.70363 9.96667C5.84013 11.222 6.26247 12.4575 6.96947 13.6732C7.64085 14.8493 8.5414 15.8788 9.6178 16.7007L12.2731 15.814C13.2788 15.4792 14.3755 15.8653 14.9915 16.7718L16.43 18.8835C17.1475 19.9382 17.018 21.3918 16.1278 22.2855L15.1746 23.2433C14.225 24.1965 12.8681 24.543 11.614 24.151C8.65063 23.227 5.9288 20.4842 3.4438 15.9225C0.955299 11.3538 0.0767986 7.47584 0.809465 4.29317C1.11747 2.95384 2.07063 1.88634 3.31663 1.48851Z" fill="white"/>
</svg>
