<svg width="21" height="17" viewBox="0 0 21 17" fill="none" xmlns="http://www.w3.org/2000/svg">
<g clip-path="url(#clip0_1_2542)">
<path d="M19.9761 0.643066H13.9761C13.5641 0.643066 12.9871 0.882066 12.6961 1.17307L5.2571 8.61207C5.11683 8.75299 5.03809 8.94373 5.03809 9.14257C5.03809 9.3414 5.11683 9.53214 5.2571 9.67307L11.6961 16.1121C11.837 16.2523 12.0278 16.3311 12.2266 16.3311C12.4254 16.3311 12.6162 16.2523 12.7571 16.1121L20.1961 8.67307C20.4881 8.38107 20.7261 7.80507 20.7261 7.39307V1.39307C20.7256 1.19432 20.6464 1.00386 20.5058 0.863319C20.3653 0.722781 20.1749 0.643594 19.9761 0.643066V0.643066ZM16.2261 6.64307C16.0291 6.643 15.8339 6.60412 15.6519 6.52866C15.4699 6.45319 15.3045 6.34261 15.1652 6.20323C15.0259 6.06385 14.9155 5.8984 14.8401 5.71632C14.7648 5.53425 14.726 5.33912 14.7261 5.14207C14.7262 4.94502 14.765 4.74991 14.8405 4.56789C14.916 4.38586 15.0266 4.22049 15.1659 4.0812C15.3053 3.94191 15.4708 3.83144 15.6528 3.75609C15.8349 3.68075 16.0301 3.642 16.2271 3.64207C16.6251 3.6422 17.0067 3.80041 17.288 4.08191C17.5693 4.3634 17.7272 4.74511 17.7271 5.14307C17.727 5.54102 17.5688 5.92263 17.2873 6.20393C17.0058 6.48524 16.6241 6.6432 16.2261 6.64307Z" fill="white"/>
<path d="M2.7261 9.14307L11.2261 0.643066H9.9761C9.5641 0.643066 8.9871 0.882066 8.6961 1.17307L1.2571 8.61207C1.11683 8.75299 1.03809 8.94373 1.03809 9.14257C1.03809 9.3414 1.11683 9.53214 1.2571 9.67307L7.6961 16.1121C7.83703 16.2523 8.02777 16.3311 8.2266 16.3311C8.42543 16.3311 8.61618 16.2523 8.7571 16.1121L9.2271 15.6421L2.7271 9.14207L2.7261 9.14307Z" fill="white"/>
</g>
<defs>
<clipPath id="clip0_1_2542">
<rect width="20" height="16" fill="white" transform="translate(0.726562 0.643066)"/>
</clipPath>
</defs>
</svg>
