<svg width="20" height="20" viewBox="0 0 20 20" fill="none" xmlns="http://www.w3.org/2000/svg">
<path fill-rule="evenodd" clip-rule="evenodd" d="M13.75 19.75C15.275 19.75 16.7375 19.1442 17.8159 18.0659C18.8942 16.9875 19.5 15.525 19.5 14V6C19.5 4.47501 18.8942 3.01247 17.8159 1.93414C16.7375 0.855802 15.275 0.25 13.75 0.25H5.75C4.22501 0.25 2.76247 0.855802 1.68414 1.93414C0.605802 3.01247 0 4.47501 0 6V14C0 15.525 0.605802 16.9875 1.68414 18.0659C2.76247 19.1442 4.22501 19.75 5.75 19.75H13.75ZM11.461 3.763C11.4044 3.59444 11.2898 3.45147 11.1376 3.35959C10.9853 3.26771 10.8054 3.2329 10.6299 3.26137C10.4544 3.28985 10.2947 3.37974 10.1793 3.51503C10.064 3.65032 10.0004 3.8222 10 4V13C10 13.445 9.86804 13.88 9.62081 14.25C9.37357 14.62 9.02217 14.9084 8.61104 15.0787C8.1999 15.249 7.7475 15.2936 7.31105 15.2068C6.87459 15.1199 6.47368 14.9057 6.15901 14.591C5.84434 14.2763 5.63005 13.8754 5.54323 13.439C5.45642 13.0025 5.50097 12.5501 5.67127 12.139C5.84157 11.7278 6.12996 11.3764 6.49997 11.1292C6.86998 10.882 7.30499 10.75 7.75 10.75C7.94891 10.75 8.13968 10.671 8.28033 10.5303C8.42098 10.3897 8.5 10.1989 8.5 10C8.5 9.80109 8.42098 9.61032 8.28033 9.46967C8.13968 9.32902 7.94891 9.25 7.75 9.25C7.00832 9.25 6.2833 9.46993 5.66661 9.88199C5.04993 10.294 4.56928 10.8797 4.28545 11.5649C4.00162 12.2502 3.92736 13.0042 4.07206 13.7316C4.21675 14.459 4.5739 15.1272 5.09835 15.6517C5.6228 16.1761 6.29098 16.5332 7.01841 16.6779C7.74584 16.8226 8.49984 16.7484 9.18506 16.4645C9.87029 16.1807 10.456 15.7001 10.868 15.0834C11.2801 14.4667 11.5 13.7417 11.5 13V6.458C12.267 7.17 13.347 7.75 14.75 7.75C14.9489 7.75 15.1397 7.67098 15.2803 7.53033C15.421 7.38968 15.5 7.19891 15.5 7C15.5 6.80109 15.421 6.61032 15.2803 6.46967C15.1397 6.32902 14.9489 6.25 14.75 6.25C13.778 6.25 13.039 5.85 12.491 5.331C11.931 4.799 11.593 4.158 11.461 3.763Z" fill="white"/>
</svg>
