<svg width="20" height="20" viewBox="0 0 20 20" fill="none" xmlns="http://www.w3.org/2000/svg">
<path d="M3.21526 0.375C1.71816 0.375 0.500977 1.6082 0.500977 3.125V16.875C0.500977 18.3918 1.71816 19.625 3.21526 19.625H16.7867C18.2838 19.625 19.501 18.3918 19.501 16.875V3.125C19.501 1.6082 18.2838 0.375 16.7867 0.375H3.21526ZM15.8155 3.98438L11.4133 9.08047L16.5916 16.0156H12.5371L9.36482 11.809L5.73022 16.0156H3.71571L8.4233 10.5629L3.457 3.98438H7.61325L10.4845 7.83008L13.801 3.98438H15.8155ZM14.2124 14.7953L7.00678 5.14023H5.80656L13.0927 14.7953H14.2081H14.2124Z" fill="white"/>
</svg>
